<svg width="509" height="185" xmlns="http://www.w3.org/2000/svg" xmlns:xlink="http://www.w3.org/1999/xlink"><use xlink:href="#path0_fill" fill="#FFF"/><defs><path id="path0_fill" d="M79.726 1.04L121.6 42.938c1.664 1.664 1.664 4.162 0 5.55L79.726 90.383c-1.664 1.665-3.882 1.665-5.546 0L32.306 48.487c-1.663-1.665-1.663-4.162 0-5.55L74.18 1.04c1.664-1.387 4.16-1.387 5.546 0zm0 117.923l19.412 19.423c1.664 1.665 1.664 4.162 0 5.549l-19.412 19.423c-1.664 1.664-4.16 1.664-5.546 0l-19.412-19.423c-1.663-1.665-1.663-4.162 0-5.549l19.412-19.423c1.664-1.665 4.16-1.665 5.546 0zM34.802 73.736L62.81 101.76c1.664 1.665 1.664 4.162 0 5.55l-28.008 28.024c-1.664 1.664-4.16 1.664-5.546 0L1.248 107.31c-1.664-1.665-1.664-4.162 0-5.55l28.008-28.024c1.664-1.664 4.16-1.664 5.546 0zm304.762 89.067c0 1.665-.277 3.329-.554 4.717-.555 1.387-1.109 2.774-2.219 3.884-1.109 1.11-2.495 1.942-4.159 2.775-1.664.555-3.883 1.11-6.656 1.11h-6.655c-1.664 0-3.605-.278-5.269-.555v9.156h-9.151v-34.406l9.151-.832c3.328-.277 6.378-.277 9.429-.277h1.386c2.773 0 5.269.277 7.21 1.109 1.941.555 3.328 1.665 4.437 2.775 1.109 1.11 1.941 2.497 2.219 3.885.554 1.387.554 3.052.554 4.717v1.942h.277zm-132.83 21.087l-6.933-10.821h-5.269c-1.664 0-3.328-.277-4.992-.555v11.376h-9.151v-34.406l9.151-.832c3.328-.277 6.379-.277 9.429-.277h1.386c2.774 0 5.269.277 7.211.832 1.941.555 3.327 1.387 4.436 2.497 1.11 1.11 1.942 2.22 2.496 3.607.555 1.388.555 2.775.555 4.44v1.942c0 2.22-.555 4.162-1.387 5.827-.832 1.664-2.495 3.052-4.437 4.162l7.765 12.208h-10.26zm-7.488-27.191h-4.437c-1.664 0-3.605.277-5.269.277v7.214c1.664.278 3.051.278 4.437.278h3.605c1.942 0 3.605 0 4.715-.278 1.109-.277 1.941-.555 2.495-.832.555-.278.832-.833.832-1.388 0-.555.278-1.387.278-2.219v-1.388c0-.555-.278-.832-.832-1.11-.555-.277-1.109-.554-1.941-.832-.832-.277-2.219-.277-3.883-.277v.555zm-23.294 9.988v16.648c-2.495.555-4.991.833-7.487 1.11-2.496.278-5.269.555-7.765.555h-1.941c-3.882 0-7.21-.555-9.706-1.387-2.495-.833-4.714-2.22-6.1-3.607-1.664-1.388-2.496-3.33-3.328-5.272-.555-1.942-.832-4.162-.832-6.659V165.3c0-2.22.277-4.439.832-6.659.555-1.942 1.664-3.885 3.328-5.272 1.663-1.387 3.605-2.775 6.1-3.607 2.496-.832 5.824-1.387 9.706-1.387h1.941c2.496 0 4.992.277 7.21.555 2.496.277 4.715.832 6.933 1.387v8.324c-2.496-.555-4.991-1.11-7.765-1.388-2.495-.277-4.991-.554-6.655-.554-3.05 0-5.546.277-7.21.832-1.664.555-2.773 1.11-3.605 1.942-.832.833-1.109 1.942-1.387 3.052 0 1.11-.277 2.497-.277 4.162 0 1.388 0 2.775.277 4.162 0 1.11.555 2.22 1.387 3.33a8.93 8.93 0 0 0 3.605 2.22c1.664.555 4.16.832 7.21.832 1.941 0 3.882 0 6.378-.277v-9.712h9.151v-.555zm42.983-1.387c0-2.22.277-4.439.832-6.659.555-1.942 1.664-3.885 3.05-5.272a14.942 14.942 0 0 1 5.824-3.607c2.496-.832 5.546-1.387 9.151-1.387h1.941c3.605 0 6.933.555 9.152 1.387a14.945 14.945 0 0 1 5.823 3.607c1.387 1.387 2.496 3.33 3.05 5.272.555 1.942.832 4.162.832 6.659v2.775c0 2.219-.277 4.439-.832 6.659-.554 1.942-1.663 3.884-3.05 5.272a14.956 14.956 0 0 1-5.823 3.607c-2.496.832-5.547 1.387-9.152 1.387h-1.941c-3.605 0-6.933-.555-9.151-1.387a14.953 14.953 0 0 1-5.824-3.607c-1.386-1.388-2.495-3.33-3.05-5.272-.555-1.942-.832-4.162-.832-6.659V165.3zm9.151 1.387c0 1.388 0 2.497.278 3.885 0 1.11.554 2.22 1.109 3.329.555.833 1.664 1.665 3.05 2.22 1.387.555 3.605.833 6.101.833 2.773 0 4.714-.278 6.101-.833 1.386-.555 2.496-1.387 3.05-2.22.555-.832 1.11-1.942 1.11-3.329 0-1.11.277-2.497.277-3.885 0-1.387 0-2.497-.277-3.607 0-1.11-.555-2.219-1.11-3.052-.554-.832-1.664-1.665-3.05-2.22-1.387-.555-3.605-.832-6.101-.832-2.773 0-4.714.277-6.101.832-1.386.555-2.495 1.388-3.05 2.22-.555.833-1.109 1.942-1.109 3.052s-.278 2.497-.278 3.607zm72.101-17.203v19.978c0 2.22-.278 4.162-.832 5.827-.555 1.942-1.387 3.329-2.773 4.994-1.387 1.387-3.051 2.497-5.269 3.33-2.219.832-4.992 1.11-8.597 1.11h-1.941c-3.328 0-6.378-.278-8.597-1.11-2.218-.833-4.159-1.943-5.268-3.33-1.387-1.387-2.219-3.052-2.774-4.994a21.162 21.162 0 0 1-.831-5.827v-19.978h9.151v18.591c0 1.109 0 2.219.277 3.329 0 1.11.555 1.942 1.109 2.775.555.832 1.387 1.387 2.773 1.942 1.11.555 3.051.833 5.269.833 2.219 0 4.16-.278 5.269-.833 1.387-.555 2.219-1.11 2.773-1.942.555-.833.832-1.665 1.109-2.775 0-1.11.278-1.942.278-3.329v-18.591h9.151-.277zm23.016 17.481c1.941 0 3.328 0 4.16-.278 1.109-.277 1.664-.555 2.218-1.11.555-.555.832-1.109.832-1.664v-3.885c0-.555-.277-1.11-.832-1.665-.554-.555-1.109-.832-1.941-1.11-.832-.277-2.218-.277-3.882-.277h-4.16c-1.664 0-3.605.277-5.269.277v9.434c1.664.278 3.051.278 4.437.278h4.437zM458.53 101.76c0-3.33.554-6.659 1.386-9.71.832-3.053 2.219-5.55 4.437-8.047 2.219-2.22 4.992-4.162 8.597-5.272 3.605-1.387 8.042-1.942 13.588-1.942h2.773c3.605 0 6.933.277 9.983.555 3.328.554 6.378 1.11 9.706 1.942v12.486c-1.664-.555-3.605-.833-5.546-1.388a218.621 218.621 0 0 1-5.269-.832c-1.664-.278-3.328-.278-4.992-.555-1.663 0-3.05-.278-4.437-.278-3.882 0-6.932.278-9.151 1.11-2.218.833-3.882 1.665-4.714 3.053-1.109 1.387-1.664 2.774-1.664 4.716-.277 1.943-.277 3.885-.277 6.105 0 2.219 0 4.162.277 6.104.278 1.942.832 3.329 1.664 4.717 1.109 1.387 2.496 2.497 4.714 3.052 2.219.832 5.269 1.11 9.151 1.11 1.387 0 2.774 0 4.437-.278 1.664 0 3.328-.277 4.992-.555 1.664-.277 3.605-.555 5.269-.832 1.941-.277 3.605-.832 5.546-1.387v12.486c-3.05.832-6.378 1.387-9.706 1.664-3.327.555-6.655.555-9.983.555h-2.773c-5.546 0-9.983-.555-13.588-1.942-3.605-1.387-6.378-3.052-8.597-5.272-2.218-2.219-3.605-4.994-4.437-8.046-.832-3.052-1.386-6.382-1.386-9.712v-3.884.277zm-323.619 0c0-3.33.554-6.659 1.386-9.71.832-3.053 2.219-5.55 4.437-8.047 2.219-2.22 4.992-4.162 8.597-5.272 3.605-1.387 8.042-1.942 13.588-1.942h2.773c3.605 0 6.933.277 9.983.555 3.328.554 6.378 1.11 9.706 1.942v12.486c-1.664-.555-3.605-.833-5.546-1.388-1.942-.277-3.605-.555-5.269-.832-1.664-.278-3.328-.278-4.992-.555-1.664 0-3.05-.278-4.437-.278-3.882 0-6.932.278-9.151 1.11-2.218.833-3.882 1.665-4.714 3.053-1.109 1.387-1.664 2.774-1.664 4.716-.277 1.943-.277 3.885-.277 6.105 0 2.219 0 4.162.277 6.104.277 1.942.832 3.329 1.664 4.717 1.109 1.387 2.496 2.497 4.714 3.052 2.219.832 5.269 1.11 9.151 1.11 1.387 0 2.773 0 4.437-.278 1.664 0 3.328-.277 4.992-.555 1.664-.277 3.605-.555 5.269-.832 1.941-.277 3.605-.832 5.546-1.387v12.486c-3.051.832-6.378 1.387-9.706 1.664-3.328.555-6.655.555-9.983.555h-2.773c-5.546 0-9.983-.555-13.588-1.942-3.605-1.387-6.378-3.052-8.597-5.272-2.218-2.219-3.605-4.994-4.437-8.046-.832-3.052-1.386-6.382-1.386-9.712v-3.884.277zM241.12 90.384h-35.218v7.77h27.731v12.208h-27.731v6.936h35.218v12.209h-49.084V78.176h49.084v12.208zm46.033 39.123l-10.26-16.093h-8.042c-2.496 0-4.992-.278-7.488-.555v16.648h-13.865V78.453c4.437-.555 9.151-.832 13.865-1.11 4.715-.277 9.706-.277 14.143-.277h2.219c4.159 0 7.764.555 10.537 1.387 2.773.833 4.992 2.22 6.656 3.607 1.664 1.388 2.773 3.33 3.605 5.272.554 1.943 1.109 4.162 1.109 6.382v3.052c0 3.33-.555 6.104-1.941 8.601-1.387 2.498-3.605 4.717-6.933 6.105l11.37 18.035h-15.252.277zm-11.37-40.788c-1.663 0-3.189.07-6.655.209-3.466.138-5.269.277-7.765.555v11.168c2.496.277 4.715.554 6.933.554h5.269c3.05 0 5.546-.277 7.21-.554 1.664-.278 3.05-.833 3.605-1.388.832-.555 1.387-1.387 1.387-2.22.277-.832.277-1.942.277-3.052 0-.555 0-1.387-.277-1.942 0-.555-.555-1.11-1.11-1.665-.554-.555-1.664-.832-3.05-1.11-1.387-.277-3.328-.555-5.824-.555zm28.286 40.788l24.126-51.331h13.865l24.403 51.331h-13.865l-4.437-9.989h-25.79l-4.437 9.989h-13.865zm38.823-21.365l-7.765-17.48-7.764 17.48h15.529zm53.798 11.099l-14.42-20.255v30.798h-13.865v-51.33h13.865l18.025 26.359 18.025-26.36h13.866v51.331H418.32V98.986L403.9 119.24h-7.21zm55.739-40.788v51.331h-13.865v-51.33h13.865z"/></defs></svg>