<svg width="147" height="118" viewBox="0 0 147 118" xmlns="http://www.w3.org/2000/svg" xmlns:xlink="http://www.w3.org/1999/xlink"><svg width="25" height="34" viewBox="-2 -2 25 34" id="arrow" y="44" xmlns="http://www.w3.org/2000/svg"><defs><style>.acls-1{fill:#fff;fill-rule:evenodd}</style></defs><path id="aForma_1" data-name="Forma 1" class="acls-1" d="M1339.7 910.2a1.061 1.061 0 0 0-1.49-1.511l-7.63 7.663v-25.288a1.053 1.053 0 0 0-1.06-1.058 1.067 1.067 0 0 0-1.07 1.058v25.287l-7.61-7.663a1.07 1.07 0 0 0-1.5 0 1.046 1.046 0 0 0 0 1.511l9.43 9.477a1.033 1.033 0 0 0 1.49 0z" transform="translate(-1319.03 -890)"/></svg><svg width="25" height="34" viewBox="-2 -2 25 34" id="arrow__blue" x="25" y="44" xmlns="http://www.w3.org/2000/svg"><defs><style>.bcls-1{fill:#6893e7;fill-rule:evenodd}</style></defs><path id="bForma_1_копия" data-name="Forma 1 копия" class="bcls-1" d="M1339.7 991.2a1.061 1.061 0 0 0-1.49-1.511l-7.63 7.663v-25.288a1.053 1.053 0 0 0-1.06-1.058 1.067 1.067 0 0 0-1.07 1.058v25.287l-7.61-7.663a1.082 1.082 0 0 0-1.51 0 1.063 1.063 0 0 0 0 1.511l9.44 9.481a1.038 1.038 0 0 0 1.49 0z" transform="translate(-1319.03 -971)"/></svg><svg width="25" height="14" viewBox="-2 -2 25 14" id="balance" x="77.69" y="78" xmlns="http://www.w3.org/2000/svg"><path fill="#9C9C9C" fill-rule="evenodd" d="M19.795 9.999L12.337 1.39 13.54 0l7.459 8.61-1.204 1.389zM-.001.173h11.352v1.965H-.001V.173zm11.352 7.206H-.001V5.414h11.352v1.965zM1.702 2.793h11.352v1.966H1.702V2.793zm10.217 7.206H.567V8.034h11.352v1.965z"/></svg><svg width="29" height="28" viewBox="-2 -2 29 28" id="calendar" x="50" y="44" xmlns="http://www.w3.org/2000/svg"><path fill-rule="evenodd" d="M22.5 24h-20a2 2 0 0 1-2-2V4.249a2 2 0 0 1 2-1.999h3.25V.75a.75.75 0 1 1 1.5 0v1.5h4.5V.75a.75.75 0 1 1 1.5 0v1.5h4.5V.75a.749.749 0 1 1 1.5 0v1.5h3.25a2 2 0 0 1 2 1.999V22a2 2 0 0 1-2 2zM23 4.249a.5.5 0 0 0-.5-.499h-3.25v1.5a.75.75 0 0 1-1.5 0v-1.5h-4.5v1.5a.75.75 0 0 1-1.5 0v-1.5h-4.5v1.5a.75.75 0 0 1-1.5 0v-1.5H2.5a.5.5 0 0 0-.5.499V22a.5.5 0 0 0 .5.5h20a.5.5 0 0 0 .5-.5V4.249zM16.25 16.5h3v2.25h-3V16.5zm0-3.75h3V15h-3v-2.25zm0-3.75h3v2.25h-3V9zM11 16.5h3v2.25h-3V16.5zm0-3.75h3V15h-3v-2.25zM11 9h3v2.25h-3V9zm-5.25 7.5h3v2.25h-3V16.5zm0-3.75h3V15h-3v-2.25zm0-3.75h3v2.25h-3V9z"/></svg><svg width="21" height="21" viewBox="-2 -2 21 21" id="close" x="123" y="36" xmlns="http://www.w3.org/2000/svg"><path fill="#6893E7" fill-rule="evenodd" d="M9.91 8.496L16.2 2.2A1.001 1.001 0 0 0 14.785.784L8.495 7.08 2.205.784A1.001 1.001 0 0 0 .791 2.2l6.29 6.296-6.29 6.296a1.001 1.001 0 0 0 1.414 1.416l6.29-6.296 6.29 6.296a1.001 1.001 0 0 0 1.415-1.416L9.91 8.496z"/></svg><svg width="21" height="21" viewBox="-2 -2 21 21" id="close-white" x="123" y="57" xmlns="http://www.w3.org/2000/svg"><path fill="#FFF" fill-rule="evenodd" d="M9.91 8.495l6.29-6.296c.39-.39.39-1.025 0-1.415a.998.998 0 0 0-1.415 0L8.496 7.08 2.205.784A1 1 0 1 0 .791 2.199l6.29 6.296-6.29 6.296a1.003 1.003 0 0 0 .707 1.71.997.997 0 0 0 .707-.293l6.291-6.297 6.289 6.297a1.001 1.001 0 1 0 1.415-1.417L9.91 8.495z"/></svg><svg width="11.44" height="20" viewBox="-2 -2 11.44 20" id="fb" x="134.44" y="95" xmlns="http://www.w3.org/2000/svg"><defs><style>.gcls-1{fill:#fff;fill-rule:evenodd}</style></defs><path id="gForma_1" data-name="Forma 1" class="gcls-1" d="M117.881 895.1v2.2h-1.614v2.7h1.614v8h3.319v-8h2.224s.208-1.291.309-2.7h-2.521v-1.85a.784.784 0 0 1 .719-.646h1.806V892h-2.456c-3.481 0-3.4 2.7-3.4 3.1z" transform="translate(-116.281 -892)"/></svg><svg width="11.44" height="20" viewBox="-2 -2 11.44 20" id="fb_blue" x="123" y="95" xmlns="http://www.w3.org/2000/svg"><defs><style>.hcls-1{fill:#6893e7;fill-rule:evenodd}</style></defs><path id="hForma_1" data-name="Forma 1" class="hcls-1" d="M1137.88 4184.1v2.2h-1.61v2.69h1.61v8.01h3.32v-8h2.22s.21-1.3.31-2.71h-2.52v-1.84a.781.781 0 0 1 .72-.65h1.8v-2.8h-2.45c-3.48 0-3.4 2.7-3.4 3.1z" transform="translate(-1136.28 -4181)"/></svg><svg width="21" height="17" viewBox="-2 -2 21 17" id="forma-1" x="123" y="78" xmlns="http://www.w3.org/2000/svg"><path fill="#FFF" fill-rule="evenodd" d="M15.93 1.787L6.011 11.929a.219.219 0 0 1-.316 0L.062 6.17a.232.232 0 0 1 0-.323l1.369-1.399a.22.22 0 0 1 .316 0l4.106 4.198L14.246.064a.22.22 0 0 1 .315 0l1.369 1.4a.232.232 0 0 1 0 .323z"/></svg><svg width="26.22" height="24" viewBox="-2 -2 26.22 24" id="google" x="26.22" y="78" xmlns="http://www.w3.org/2000/svg"><defs><style>.jcls-1{fill:#fff;fill-rule:evenodd}</style></defs><path id="jForma_1" data-name="Forma 1" class="jcls-1" d="M299.318 904.287c-.129-.085-.261-.176-.4-.271a4.47 4.47 0 0 0-1.266-.193h-.052c-2.009 0-3.771 1.216-3.771 2.6 0 1.51 1.51 2.692 3.436 2.692 2.541 0 3.829-.876 3.829-2.6a2.145 2.145 0 0 0-.06-.5 3.535 3.535 0 0 0-1.716-1.728zm-1.424-5.266a1.539 1.539 0 0 0 1.2-.549 3.156 3.156 0 0 0 .581-2.46c-.228-1.747-1.477-3.2-2.781-3.239h-.052a1.539 1.539 0 0 0-1.185.548 3.053 3.053 0 0 0-.564 2.408c.228 1.746 1.5 3.254 2.781 3.294h.018zm1.8 11.641a8.68 8.68 0 0 1-2.413.326 11.109 11.109 0 0 1-2.709-.323 5.252 5.252 0 0 1-3.426-2.216 2.813 2.813 0 0 1-.369-1.389 3.522 3.522 0 0 1 .354-1.5c.9-1.921 3.276-3.211 5.907-3.211h.075a2.335 2.335 0 0 1-.317-1.176 2.478 2.478 0 0 1 .082-.624 4.738 4.738 0 0 1-4.824-4.747 5.068 5.068 0 0 1 3.653-4.454 5.972 5.972 0 0 1 1.945-.336h5.9a.464.464 0 0 1 .272.84l-1.32.955a.465.465 0 0 1-.272.086h-.473a4.6 4.6 0 0 1 .968 2.946 4.4 4.4 0 0 1-1.844 3.446c-.919.716-.955.913-.955 1.322a3.921 3.921 0 0 0 1.358 1.457 4.565 4.565 0 0 1 2.258 4.212c-.005 1.986-1.516 3.706-3.855 4.386zm13.326-10.121a.465.465 0 0 1-.464.463H309.2v3.355a.463.463 0 0 1-.462.464h-.958a.463.463 0 0 1-.465-.464V901h-3.353a.462.462 0 0 1-.463-.463v-.954a.464.464 0 0 1 .463-.465h3.353v-3.348a.463.463 0 0 1 .465-.463h.955a.463.463 0 0 1 .462.463v3.352h3.354a.465.465 0 0 1 .464.463v.956z" transform="translate(-290.781 -891)"/></svg><svg width="26.22" height="24" viewBox="-2 -2 26.22 24" id="google_blue" y="78" xmlns="http://www.w3.org/2000/svg"><defs><style>.kcls-1{fill:#6893e7;fill-rule:evenodd}</style></defs><path id="kForma_1" data-name="Forma 1" class="kcls-1" d="M1319.32 4193.29c-.13-.09-.26-.18-.4-.27a4.439 4.439 0 0 0-1.27-.2h-.05c-2.01 0-3.77 1.22-3.77 2.61 0 1.51 1.51 2.69 3.44 2.69 2.54 0 3.82-.88 3.82-2.6a2.22 2.22 0 0 0-.06-.51 3.484 3.484 0 0 0-1.71-1.72zm-1.43-5.27h.01a1.548 1.548 0 0 0 1.2-.55 3.156 3.156 0 0 0 .58-2.46c-.23-1.74-1.48-3.2-2.78-3.24h-.06a1.523 1.523 0 0 0-1.18.55 3.062 3.062 0 0 0-.57 2.41c.23 1.74 1.51 3.25 2.79 3.29h.01zm1.8 11.64a8.558 8.558 0 0 1-2.41.33 10.818 10.818 0 0 1-2.71-.33 5.245 5.245 0 0 1-3.43-2.21 2.863 2.863 0 0 1-.37-1.39 3.44 3.44 0 0 1 .36-1.5c.9-1.92 3.27-3.21 5.9-3.21h.08a2.3 2.3 0 0 1-.32-1.18 2.7 2.7 0 0 1 .08-.62 4.745 4.745 0 0 1-4.82-4.75 5.084 5.084 0 0 1 3.65-4.46 6.05 6.05 0 0 1 1.95-.33h5.9a.462.462 0 0 1 .44.32.475.475 0 0 1-.17.52l-1.32.95a.439.439 0 0 1-.27.09h-.47a4.638 4.638 0 0 1 .96 2.95 4.382 4.382 0 0 1-1.84 3.44c-.92.72-.96.92-.96 1.32a3.943 3.943 0 0 0 1.36 1.46 4.556 4.556 0 0 1 2.26 4.21c0 1.99-1.51 3.71-3.85 4.39zm13.32-10.12a.453.453 0 0 1-.46.46h-3.35v3.36a.461.461 0 0 1-.47.46h-.95a.461.461 0 0 1-.47-.46V4190h-3.35a.459.459 0 0 1-.46-.46v-.95a.467.467 0 0 1 .46-.47h3.35v-3.35a.461.461 0 0 1 .47-.46h.95a.461.461 0 0 1 .47.46v3.35h3.35a.461.461 0 0 1 .46.47v.95z" transform="translate(-1310.78 -4180)"/></svg><svg width="50" height="44" viewBox="-2 -2 50 44" id="icon-trade-people" xmlns="http://www.w3.org/2000/svg"><path fill="#527BCD" fill-rule="evenodd" d="M43.342 23.253a6.18 6.18 0 0 0-1.991-1.262l-3.01-1.242-2.108-1.379v-.701a5.702 5.702 0 0 0 3.012-4.134c1.322-.174 2.346-1.299 2.346-2.656a2.66 2.66 0 0 0-.71-1.81V7.5c0-4.135-3.395-7.499-7.568-7.499h-.572c-3.435 0-6.432 2.286-7.312 5.566a7.996 7.996 0 0 0-2.071-.273h-.603c-.754 0-1.484.107-2.176.303C19.709 2.3 16.704.001 13.258.001h-.572C8.514.001 5.119 3.365 5.119 7.5v2.569a2.661 2.661 0 0 0-.711 1.81c0 1.357 1.024 2.482 2.347 2.656a5.697 5.697 0 0 0 3.012 4.134v.701l-2.108 1.379-3.01 1.242a6.18 6.18 0 0 0-1.992 1.262c-.904.846-1.982 2.368-1.982 4.81v4.246c0 .386.316.7.705.7h8.853a7.659 7.659 0 0 0-.21 1.817v4.473c0 .386.316.7.705.7h16.564c.39 0 .705-.313.705-.698a.702.702 0 0 0-.705-.699h-1.509l-.852-5.229.333-.878.503.366a.703.703 0 0 0 .587.116.705.705 0 0 0 .465-.373l1.914-3.9 2.555 1.056.047.017c.032.011 3.231 1.121 3.231 5.049v3.776h-2.925v-3.98a.702.702 0 0 0-.705-.699.702.702 0 0 0-.705.699v3.98h-.745a.702.702 0 0 0-.705.699c0 .385.315.698.705.698h5.785a.71.71 0 0 0 .705-.707v-4.467c0-.67-.078-1.274-.209-1.816h8.852a.71.71 0 0 0 .706-.707v-4.239c0-2.442-1.079-3.964-1.983-4.81zm-5.434-9.62c0 2.362-1.939 4.283-4.322 4.283h-1.091c-.153 0-.304-.009-.455-.025.001-.039.003-.079.003-.119 0-.73-.285-1.394-.75-1.892v-2.723a7.748 7.748 0 0 0-.814-3.464c1.546-.371 3.361-1.08 4.764-2.44.436.922 1.251 2.123 2.665 2.654v3.726zm-3.085 5.546v1.428l-1.812 1.863-1.755-1.694.001-.023V19.701c.135-.14.256-.292.359-.456.29.044.584.068.879.068h1.091c.424 0 .838-.047 1.237-.134zm-4.19-1.407c0 .352-.135.673-.354.919a.699.699 0 0 0-.318.265 1.415 1.415 0 0 1-.314.143v-2.654c.57.176.986.704.986 1.327zm9.549-5.893c0 .557-.362 1.032-.864 1.208V10.67c.502.177.864.651.864 1.209zM26.777 5.977c.698-2.696 3.151-4.579 5.964-4.579h.572c3.395 0 6.157 2.737 6.157 6.102v1.762a2.348 2.348 0 0 0-.171-.033.703.703 0 0 0-.53-.52c-1.973-.445-2.58-2.941-2.586-2.964a.708.708 0 0 0-1.259-.255c-1.322 1.811-3.525 2.601-5.226 2.945a7.977 7.977 0 0 0-2.946-2.384.644.644 0 0 0 .025-.074zm-4.022.714h.603c3.598 0 6.525 2.901 6.525 6.467v1.904a2.51 2.51 0 0 0-.25-.048l-.006-.027-.009-.035a.338.338 0 0 0-.011-.034l-.011-.029a.543.543 0 0 0-.029-.061l-.018-.033a.365.365 0 0 0-.016-.026l-.02-.028-.02-.027-.021-.024-.025-.027a.387.387 0 0 0-.021-.02.358.358 0 0 0-.051-.044.619.619 0 0 0-.031-.023l-.026-.017-.032-.019-.031-.016-.029-.014-.039-.015-.025-.009a.617.617 0 0 0-.063-.018c-2.104-.474-2.748-3.126-2.754-3.151a.708.708 0 0 0-1.259-.255c-2.45 3.357-7.804 3.389-7.885 3.389h-.003a.58.58 0 0 0-.088.006l-.054.008-.019.005c-.016.004-.033.007-.048.012l-.025.009c-.013.005-.027.009-.04.015l-.03.014c-.011.005-.021.009-.031.015l-.03.018-.028.017-.029.021-.025.019a.285.285 0 0 0-.026.023.262.262 0 0 0-.025.022l-.023.025-.022.024a.468.468 0 0 0-.02.027l-.021.027-.017.028c-.006.01-.013.019-.018.029l-.015.03-.015.031a.383.383 0 0 0-.011.031l-.013.033-.008.033-.009.034-.001.007a2.841 2.841 0 0 0-.278.053v-1.91c0-3.565 2.928-6.466 6.526-6.466zm.286 22.294l-1.889-1.823.002-.039v-1.706c.432.098.88.151 1.341.151h1.15c.447 0 .883-.05 1.303-.142a.46.46 0 0 1 .038-.002v1.56l-1.945 2.001zm1.043 2.649l-.367.968h-1.313l-.415-.98 1.039-.758 1.056.77zm-10.516-5.716H12.37l-.33-.871.959-.699.942.687-.373.883zm.093 2.776a6.774 6.774 0 0 0-1.585 1.113l.406-2.492h.955l.224 1.379zm-.673-6.224l-1.811-1.863v-1.428c.399.087.812.134 1.237.134h1.091c.338 0 .675-.029 1.006-.087.07.112.147.219.231.32v1.207l.001.023-1.755 1.694zm2.951-.898a.692.692 0 0 0 .207-.584l.619.405c.068.213.148.421.238.623l-1.271 2.59-1.672-1.22 1.879-1.814zm-.432-3.8c0-.623.415-1.151.986-1.327v2.654a1.394 1.394 0 0 1-.986-1.327zm-.397 8.115l.468.341a.707.707 0 0 0 1.051-.257l1.253-2.551a6.02 6.02 0 0 0 1.862 1.484v.727l-2.26 1.478a.606.606 0 0 0-.091.03l-2.396.989-.232-1.426.345-.815zm4.655 1.404a.692.692 0 0 0 .192.668l2.012 1.942-1.834 1.338-1.557-3.172 1.187-.776zm3.88-3.12h-1.15c-2.532 0-4.592-2.041-4.592-4.551v-3.802c1.512-.109 5.09-.614 7.501-2.983.453.976 1.315 2.273 2.833 2.833v3.952c0 2.51-2.06 4.551-4.592 4.551zM6.681 13.087a1.284 1.284 0 0 1-.863-1.208c0-.558.361-1.032.863-1.209v2.417zm.724-4.396h-.003l-.008.001-.007-.001a.704.704 0 0 0-.686.538c-.058.009-.115.02-.172.033V7.499c0-3.364 2.762-6.101 6.157-6.101h.572c2.813 0 5.266 1.883 5.964 4.579a.766.766 0 0 0 .044.119 7.987 7.987 0 0 0-2.436 1.838c-.812-.84-1.096-2.01-1.098-2.021a.706.706 0 1 0-1.259-.255C12.28 8.662 7.476 8.691 7.405 8.691zm.686 4.942v-3.575c1.387-.104 4.537-.571 6.704-2.646.254.526.634 1.139 1.186 1.654a7.759 7.759 0 0 0-1.162 4.091v2.752a2.765 2.765 0 0 0-.719 1.965 4.386 4.386 0 0 1-.595.042h-1.091c-2.384 0-4.323-1.921-4.323-4.283zm1.692 7.401a.687.687 0 0 0 .181.339l1.964 2.021-1.661 1.212-1.445-2.944.961-.628zm.571 10.578H6.199V27.87a.701.701 0 0 0-.705-.698.7.7 0 0 0-.705.698v3.742H2.085v-3.549c0-3.668 2.921-4.716 3.042-4.758a.443.443 0 0 0 .047-.017l2.393-.988 1.802 3.671a.708.708 0 0 0 1.052.257l.439-.32.296.78-.802 4.924zm10.003 6.99h-4.589v-3.98a.702.702 0 0 0-.705-.699.702.702 0 0 0-.705.699v3.98h-2.925v-3.776c0-3.894 3.103-5.005 3.232-5.049l.047-.017 2.601-1.075 1.924 3.919a.705.705 0 0 0 1.052.257l.531-.387.386.913-.849 5.215zm1.428 0l.75-4.602h1.07l.75 4.602h-2.57zm4.136-7.363l-.556-.405-.004-.004-1.262-.92 2.1-2.16a.693.693 0 0 0 .191-.395l1.088.712-1.557 3.172zm5.081-3.111l-2.365-.977-2.239-1.464-.002-.001v-.782a6.027 6.027 0 0 0 1.773-1.381l1.201 2.448a.708.708 0 0 0 1.052.257l.468-.341.344.815-.232 1.426zm-.734-3.523l-1.199-2.441c.136-.283.249-.579.339-.884l.445-.292a.693.693 0 0 0 .208.584l1.879 1.814-1.672 1.219zm3.631 5.179a6.721 6.721 0 0 0-1.561-1.09l.225-1.379h.954l.406 2.492-.024-.023zm-.27-3.866h-1.197l-.374-.883.942-.687.959.699-.33.871zm.442-2.524l1.964-2.021a.701.701 0 0 0 .182-.339l.96.628-1.444 2.943-1.662-1.211zm7.14 8.218V27.87a.701.701 0 0 0-.705-.698.7.7 0 0 0-.705.698v3.742h-4.156l-.801-4.924.295-.78.44.32a.707.707 0 0 0 1.051-.257l1.802-3.671 2.393.988a.443.443 0 0 0 .047.017c.03.011 3.042 1.056 3.042 4.758v3.549h-2.703z"/></svg><svg width="29" height="29" viewBox="-2 -2 29 29" id="status-error" x="94" y="29" xmlns="http://www.w3.org/2000/svg"><path fill="#D72929" fill-rule="evenodd" d="M12.5 24.502C5.882 24.502.498 19.118.498 12.5S5.882.498 12.5.498 24.502 5.882 24.502 12.5 19.118 24.502 12.5 24.502zm5.225-8.228l-3.809-3.822 3.167-3.167a.985.985 0 0 0-1.391-1.392l-3.165 3.166-2.087-2.094-.759-.666a1 1 0 0 0-1.394-.019c.009-.009.011-.02.019-.028l-.047.047c.008-.008.02-.011.028-.019a1.012 1.012 0 0 0-.275.685c0 .258.098.516.294.714l2.796 2.804-2.536 2.536-.649.742a.98.98 0 0 0-.019 1.364c-.008-.008-.02-.01-.028-.019l.047.047c-.009-.009-.011-.02-.019-.028.189.176.427.27.668.27a.984.984 0 0 0 .696-.289l3.229-3.229 3.812 3.824a1.005 1.005 0 0 0 1.422 0 1.011 1.011 0 0 0 0-1.427z"/></svg><svg width="29" height="29" viewBox="-2 -2 29 29" id="status-ok" x="94" xmlns="http://www.w3.org/2000/svg"><path fill="#0CC510" fill-rule="evenodd" d="M12.5 24.502C5.882 24.502.498 19.118.498 12.5S5.882.498 12.5.498 24.502 5.882 24.502 12.5 19.118 24.502 12.5 24.502zm6.583-16.609a.984.984 0 0 0-1.391 0l-7.126 7.126-3.258-3.258a.984.984 0 1 0-1.391 1.392l3.953 3.953a.982.982 0 0 0 1.392 0l7.821-7.821a.985.985 0 0 0 0-1.392z"/></svg><svg width="44" height="44" viewBox="-2 -2 44 44" id="succses-registr" x="50" xmlns="http://www.w3.org/2000/svg"><path fill="#33D359" fill-rule="evenodd" d="M20 40.003C8.97 40.003-.004 31.03-.004 20S8.97-.003 20-.003C31.029-.003 40.003 8.97 40.003 20S31.029 40.003 20 40.003zm10.971-27.681a1.64 1.64 0 0 0-2.318 0L16.776 24.199l-5.43-5.43a1.64 1.64 0 1 0-2.318 2.319l6.589 6.589c.32.32.74.48 1.159.48.42 0 .84-.16 1.16-.48l13.035-13.036a1.639 1.639 0 0 0 0-2.319z"/></svg><svg width="25" height="16" viewBox="-2 -2 25 16" id="trade-icon" y="102" xmlns="http://www.w3.org/2000/svg"><path fill="#BCBBBB" fill-rule="evenodd" d="M20.782 4.636l-3.333 3.358a.742.742 0 0 1-1.052 0 .753.753 0 0 1 0-1.06l2.063-2.078H8.375a.747.747 0 0 1-.744-.75c0-.413.333-.749.744-.749H18.46l-2.063-2.078a.751.751 0 0 1 0-1.059.74.74 0 0 1 1.052 0l3.333 3.357c.29.292.29.767 0 1.059zM2.537 7.144h10.085c.411 0 .744.336.744.75a.747.747 0 0 1-.744.749H2.537L4.6 10.721a.753.753 0 0 1 0 1.06.738.738 0 0 1-1.052 0L.216 8.423a.751.751 0 0 1 0-1.059l3.332-3.357a.74.74 0 0 1 1.052 0 .751.751 0 0 1 0 1.059L2.537 7.144z"/></svg><svg width="25.25" height="16" viewBox="-2 -2 25.25 16" id="vk" x="52.44" y="78" xmlns="http://www.w3.org/2000/svg"><defs><style>.qcls-1{fill:#fff;fill-rule:evenodd}</style></defs><path class="qcls-1" d="M18.269 7.63a28.894 28.894 0 0 1 2.075 2.092 6.042 6.042 0 0 1 .746 1.074.769.769 0 0 1-.471 1.2h-3.094a2.386 2.386 0 0 1-1.969-.8c-.429-.436-.825-.9-1.237-1.352a2.983 2.983 0 0 0-.557-.495.646.646 0 0 0-1.03.251 3.245 3.245 0 0 0-.326 1.443.82.82 0 0 1-.985.953 7.909 7.909 0 0 1-4.427-.951 9.8 9.8 0 0 1-2.979-2.789 37.564 37.564 0 0 1-3.92-6.988C-.153.717.028.421.636.411a80.488 80.488 0 0 1 3.029 0 .889.889 0 0 1 .84.628 18.78 18.78 0 0 0 2.053 3.8 3.25 3.25 0 0 0 .776.852.471.471 0 0 0 .8-.236 2.633 2.633 0 0 0 .178-.8 11.9 11.9 0 0 0-.049-2.8A1.166 1.166 0 0 0 7.27.789c-.3-.056-.252-.166-.109-.335a1.113 1.113 0 0 1 .949-.472h3.5a.833.833 0 0 1 .748.909v3.884a1.136 1.136 0 0 0 .493.993.689.689 0 0 0 .7-.342A12.071 12.071 0 0 0 15.52 2.4c.237-.478.44-.975.638-1.471a.748.748 0 0 1 .79-.541h3.365a1.736 1.736 0 0 1 .3.018.583.583 0 0 1 .547.894 8.4 8.4 0 0 1-1.338 2.32c-.561.777-1.161 1.526-1.718 2.308a1.053 1.053 0 0 0 .165 1.692z"/></svg><svg width="25.25" height="16" viewBox="-2 -2 25.25 16" id="vk_blue" x="94" y="58" xmlns="http://www.w3.org/2000/svg"><defs><style>.rcls-1{fill:#6893e7;fill-rule:evenodd}</style></defs><path class="rcls-1" d="M18.26 7.63a27.467 27.467 0 0 1 2.08 2.1 5.713 5.713 0 0 1 .75 1.07.766.766 0 0 1-.47 1.2h-3.09a2.415 2.415 0 0 1-1.97-.8c-.43-.44-.83-.9-1.24-1.35a2.95 2.95 0 0 0-.56-.5.649.649 0 0 0-1.03.25 3.257 3.257 0 0 0-.32 1.44.833.833 0 0 1-.99.96 8.038 8.038 0 0 1-4.43-.95 9.888 9.888 0 0 1-2.97-2.79A37.834 37.834 0 0 1 .09 1.27C-.15.72.03.42.64.41 1.65.39 2.65.39 3.66.41a.9.9 0 0 1 .85.63 18.341 18.341 0 0 0 2.05 3.8 3.327 3.327 0 0 0 .77.86.473.473 0 0 0 .8-.24 2.448 2.448 0 0 0 .18-.8 11.841 11.841 0 0 0-.05-2.79A1.161 1.161 0 0 0 7.27.8c-.3-.06-.25-.17-.11-.34a1.112 1.112 0 0 1 .95-.47h3.5a.827.827 0 0 1 .74.91l.01 3.89a1.112 1.112 0 0 0 .49.99.7.7 0 0 0 .7-.34 12.144 12.144 0 0 0 1.97-3.03c.23-.48.44-.97.64-1.47a.735.735 0 0 1 .79-.54h3.36a1.514 1.514 0 0 1 .3.02.584.584 0 0 1 .55.89 8.512 8.512 0 0 1-1.34 2.32c-.56.78-1.16 1.53-1.72 2.31a1.054 1.054 0 0 0 .16 1.69z"/></svg><svg width="24" height="18" viewBox="-2 -2 24 18" id="youtybe" x="123" xmlns="http://www.w3.org/2000/svg"><defs><style>.scls-1{fill:#fff;fill-rule:evenodd}</style></defs><path id="sForma_1" data-name="Forma 1" class="scls-1" d="M250.143 895.264a2.531 2.531 0 0 0-2.16-1.975 66.886 66.886 0 0 0-7.481-.278 66.9 66.9 0 0 0-7.482.278 2.53 2.53 0 0 0-2.159 1.975 32.387 32.387 0 0 0 0 9.5 2.528 2.528 0 0 0 2.159 1.974 66.666 66.666 0 0 0 7.482.278 66.639 66.639 0 0 0 7.481-.278 2.53 2.53 0 0 0 2.16-1.974 32.664 32.664 0 0 0 0-9.5zm-12.223 7.866v-6.643l6.352 3.332z" transform="translate(-230.5 -893)"/></svg><svg width="24" height="18" viewBox="-2 -2 24 18" id="youtybe_blue" x="123" y="18" xmlns="http://www.w3.org/2000/svg"><defs><style>.tcls-1{fill:#6893e7;fill-rule:evenodd}</style></defs><path id="tForma_1" data-name="Forma 1" class="tcls-1" d="M1270.14 4184.26a2.529 2.529 0 0 0-2.16-1.97 100.051 100.051 0 0 0-14.96 0 2.54 2.54 0 0 0-2.16 1.97 32.407 32.407 0 0 0 0 9.5 2.528 2.528 0 0 0 2.16 1.98 103.747 103.747 0 0 0 14.96 0 2.55 2.55 0 0 0 2.16-1.98 32.407 32.407 0 0 0 0-9.5zm-12.22 7.87v-6.64c2.12 1.11 4.22 2.21 6.35 3.33-2.12 1.11-4.23 2.2-6.35 3.31z" transform="translate(-1250.5 -4182)"/></svg></svg>